# xmcd
#
# Track frame offsets:
#	150
#	17862
#	35092
#	51622
#	66750
#	84392
#	101442
#	117635
#	132900
#	148520
#	165162
#	180382
#	194067
#	206385
#	222680
#	238965
#	257090
#	273687
#	288887
#	307952
#	322955
#
# Disc length: 4544 seconds
#
# Revision: 0
# Processed by: cddbd v1.5.2PL0 Copyright (c) Steve Scherf et al.
# Submitted via: audiograbber 1.83.01
#
DISCID=4411be15
DTITLE=Vários - Promocional Sertanejo 2004 - Volume II
DYEAR=2004
DGENRE=Sertanejo
TTITLE0=Chico Rey and Paraná - Dona Da Verdade
TTITLE1=Zé Henrique and Gabriel - Calma, Respira
TTITLE2=João Pedro and Cristiano - Toma Conta de Mim
TTITLE3=Jayne - Recomeçar
TTITLE4=Marciano - Pout Porri: Seu Amor Ainda é Tudo - Ainda Ontem Chorei de Sa
TTITLE4=udade
TTITLE5=Roby and Roger - Pedi Pra Voltar
TTITLE6=Ataíde and Alexandre - Ontem a Noite Perguntei Por Você
TTITLE7=Guto and Nando - Ainda Assim Te Amo
TTITLE8=Eros and Eron - Correnteza de Emoção
TTITLE9=Jean and Jauê - Sem Você
TTITLE10=Guilherme and Gustavo - Paixão
TTITLE11=Gino and Geno - Nóis Enverga, Mais Não Quebra
TTITLE12=Delley and Dorivan - Tô Doidão
TTITLE13=Otávio Augusto and Gabriel - Amor Eu Choro
TTITLE14=Jad and Jefferson - A Turma do Zóio Roxo
TTITLE15=Juliano Cesar - Casar Pra Quê
TTITLE16=Ney and Nando part. Teodoro and Sampaio - Karatê
TTITLE17=Diogo and Marcel - Por Você
TTITLE18=Gleydson Rodrigues - Eu Hoje Vou Me Dar Bem
TTITLE19=Breno and Duran - Cowboy 24 Horas
TTITLE20=Marcelinho Di Lima part. Gino and Geno - Trovejou Mas Não Choveu
EXTD=
EXTT0=
EXTT1=
EXTT2=
EXTT3=
EXTT4=
EXTT5=
EXTT6=
EXTT7=
EXTT8=
EXTT9=
EXTT10=
EXTT11=
EXTT12=
EXTT13=
EXTT14=
EXTT15=
EXTT16=
EXTT17=
EXTT18=
EXTT19=
EXTT20=
PLAYORDER=
